<?xml version="1.0" encoding="UTF-8"?>
<svg xmlns="http://www.w3.org/2000/svg" width="68" height="68" viewBox="0 0 68 68" fill="none">
  <path d="M60.1209 17.75L55.7709 20.46L46.1909 26.42M21.8109 26.42C18.3409 24.26 14.8509 22.09 12.2309 20.46M34.0009 6.92V18.84M34.0009 60V49.17V34M34.0009 34L45.9709 26.55M34.0009 34C34.0009 34 27.9709 30.25 22.0309 26.55C21.9209 26.48 21.9209 26.48 21.8109 26.41C27.8809 22.64 34.0009 18.83 34.0009 18.83L46.1909 26.41L45.9709 26.55M45.9709 26.55V41.45V41.59M45.9709 26.55V26.41M22.0309 31.84V41.45V41.59M22.0309 26.42V26.56M60.1209 32.92V35.09V50.26L46.1909 41.59M60.1209 17.76V32.93M7.88086 50.25V35.08M7.88086 50.25C7.88086 50.25 14.8809 45.9 21.8109 41.58C27.8809 45.35 34.0009 49.16 34.0009 49.16L46.1909 41.58M7.88086 50.25L34.0009 66.5L60.1209 50.25M7.88086 35.09V32.92V17.75L34.0009 1.5L60.1209 17.74M22.0309 41.46C21.9209 41.53 21.9209 41.53 21.8109 41.6M46.1909 41.6L45.9709 41.46" stroke="white" stroke-width="0.35" stroke-linecap="round" stroke-linejoin="round"></path>
</svg>
