<?xml version="1.0" encoding="UTF-8"?>
<svg xmlns="http://www.w3.org/2000/svg" width="68" height="68" viewBox="0 0 68 68" fill="none">
  <path d="M33.9991 39.8V13.49M33.9991 39.8C32.0691 39.8 30.5091 41.36 30.5091 43.28C30.5091 45.2 32.0691 46.76 33.9991 46.76C35.9291 46.76 37.4891 45.2 37.4891 43.28C37.4891 41.36 35.9291 39.8 33.9991 39.8ZM7.69906 27.04C9.68906 15.64 18.9291 6.73 30.5191 5.21M37.4891 5.21C49.0691 6.73 58.3191 15.64 60.3091 27.04M10.7591 4.98H30.5091M37.4791 4.98H57.2291M45.6791 53.73C46.1991 48.91 49.8491 46.08 51.6291 44.98C52.1591 44.65 52.3291 43.97 52.0291 43.43L35.0191 14.08C34.5791 13.29 33.4291 13.29 32.9891 14.08L15.9791 43.43C15.6791 43.97 15.8491 44.65 16.3791 44.98C18.1491 46.08 21.8091 48.9 22.3291 53.73M9.59906 8.46H4.94906C4.30906 8.46 3.78906 7.94 3.78906 7.3V2.66C3.78906 2.02 4.30906 1.5 4.94906 1.5H9.59906C10.2391 1.5 10.7591 2.02 10.7591 2.66V7.3C10.7591 7.94 10.2391 8.46 9.59906 8.46ZM9.59906 34H4.94906C4.30906 34 3.78906 33.48 3.78906 32.84V28.2C3.78906 27.56 4.30906 27.04 4.94906 27.04H9.59906C10.2391 27.04 10.7591 27.56 10.7591 28.2V32.84C10.7591 33.48 10.2391 34 9.59906 34ZM63.0391 34H58.3891C57.7491 34 57.2291 33.48 57.2291 32.84V28.2C57.2291 27.56 57.7491 27.04 58.3891 27.04H63.0391C63.6791 27.04 64.1991 27.56 64.1991 28.2V32.84C64.1991 33.48 63.6791 34 63.0391 34ZM63.0391 8.46H58.3891C57.7491 8.46 57.2291 7.94 57.2291 7.3V2.66C57.2291 2.02 57.7491 1.5 58.3891 1.5H63.0391C63.6791 1.5 64.1991 2.02 64.1991 2.66V7.3C64.1991 7.94 63.6791 8.46 63.0391 8.46ZM36.3191 8.46H31.6691C31.0291 8.46 30.5091 7.94 30.5091 7.3V2.66C30.5091 2.02 31.0291 1.5 31.6691 1.5H36.3191C36.9591 1.5 37.4791 2.02 37.4791 2.66V7.3C37.4791 7.94 36.9591 8.46 36.3191 8.46ZM46.7791 66.49H21.2191C20.5791 66.49 20.0591 65.97 20.0591 65.33V59.53C20.0591 58.89 20.5791 58.37 21.2191 58.37H46.7791C47.4191 58.37 47.9391 58.89 47.9391 59.53V65.33C47.9391 65.97 47.4191 66.49 46.7791 66.49Z" stroke="white" stroke-width="0.35" stroke-linecap="round" stroke-linejoin="round"></path>
</svg>
