<?xml version="1.0" encoding="UTF-8"?>
<svg xmlns="http://www.w3.org/2000/svg" width="68" height="68" viewBox="0 0 68 68" fill="none">
  <path d="M55.5 22.52L63.19 30.21L58.78 34.62C59.4 35.75 59.88 36.99 60.28 38.24H66.5V48.18L60.58 48.53L58.99 51.84L64.38 56.17L57.57 63.45L53.16 59.38C52 59.95 50.79 60.4 49.54 60.74V66.51H38.24V60.97C37.14 60.63 36.04 60.18 35.02 59.64L31.09 63.54L24.25 56.7M17.52 9.53H17.49L12.94 4.95L4.94 12.95L9.52 17.53C8.87 18.72 8.36 19.99 7.97 21.29H1.5V32.59H7.97C8.37 33.89 9.52 36.35 9.52 36.35L4.94 40.93L12.94 48.93L17.52 44.35C18.71 45 19.98 45.51 21.28 45.9V52.37H32.58V45.9C33.88 45.5 35.15 45 36.34 44.35L40.92 48.93L48.92 40.93L44.34 36.38V36.35C44.99 35.16 45.5 33.89 45.89 32.59H52.36V21.29H45.89C45.49 19.99 44.99 18.72 44.34 17.53L48.92 12.95L40.92 4.95L36.37 9.53H36.34C35.15 8.88 33.88 8.37 32.58 7.98V1.5H21.28V7.97C19.98 8.37 18.71 8.87 17.52 9.52H17.49M35.41 26.93C35.41 31.61 31.61 35.41 26.93 35.41C22.25 35.41 18.45 31.61 18.45 26.93C18.45 22.25 22.25 18.45 26.93 18.45C31.61 18.45 35.41 22.25 35.41 26.93Z" stroke="white" stroke-width="0.35" stroke-linecap="round" stroke-linejoin="round"></path>
</svg>
