<?xml version="1.0" encoding="UTF-8"?>
<svg xmlns="http://www.w3.org/2000/svg" width="459" height="73" viewBox="0 0 459 73" fill="none">
  <path d="M41.5724 45.1215C45.5594 38.5722 48.8108 33.9975 48.8108 27.0768C48.8108 21.1918 46.4965 15.5479 42.3769 11.3866C38.2573 7.22525 32.67 4.88745 26.844 4.88745C21.0181 4.88745 15.4307 7.22525 11.3111 11.3866C7.19155 15.5479 4.8772 21.1918 4.8772 27.0768C4.8772 34.8968 8.10932 38.5722 12.1156 45.1215H41.5724Z" fill="#F99C2E"></path>
  <path d="M29.6504 51.0647V27.0376C29.6555 26.054 30.0446 25.1122 30.7331 24.4167C31.4216 23.7212 32.354 23.3282 33.3277 23.3231H33.5019C34.5285 23.3231 35.513 23.735 36.2389 24.4683C36.9649 25.2016 37.3727 26.1961 37.3727 27.2331C37.4421 28.197 37.1308 29.1493 36.507 29.882C35.8832 30.6147 34.9976 31.0682 34.0438 31.1431H20.0121C19.5267 31.138 19.047 31.0364 18.6004 30.844C18.1538 30.6516 17.7492 30.3722 17.4095 30.0219C17.0698 29.6715 16.8018 29.2569 16.6207 28.8019C16.4397 28.3469 16.3491 27.8603 16.3542 27.37V27.2331C16.3542 26.1961 16.762 25.2016 17.4879 24.4683C18.2139 23.735 19.1984 23.3231 20.225 23.3231C20.7102 23.2941 21.1963 23.3631 21.6548 23.526C22.1133 23.689 22.535 23.9425 22.8954 24.272C23.2558 24.6014 23.5476 25.0001 23.7537 25.4448C23.9598 25.8894 24.0761 26.3711 24.0958 26.8617C24.1068 26.9132 24.1068 26.9665 24.0958 27.0181V51.0451" stroke="white" stroke-width="1.13" stroke-miterlimit="10"></path>
  <path d="M12.1931 45.1216C16.635 52.2128 21.529 59.0045 26.8441 65.4537C32.153 58.9996 37.0467 52.2083 41.4951 45.1216H12.1931Z" fill="#B9B3B3"></path>
  <path d="M66.7908 36.6172H83.8804C88.1189 36.6172 90.7704 37.5947 92.551 39.3933C93.1838 40.0172 93.6824 40.7664 94.0154 41.594C94.3484 42.4215 94.5088 43.3096 94.4864 44.2026C94.511 45.8406 93.9844 47.4384 92.9929 48.7347C92.0015 50.031 90.6038 50.949 89.0285 51.3384C92.8993 52.4723 95.4734 54.5837 95.4734 58.8065V58.9043C95.4734 63.8309 91.4672 67.4477 83.7449 67.4477H66.7908V36.6172ZM81.1708 48.7187C83.3578 48.7187 84.4029 47.9758 84.4029 46.6073C84.4029 45.2388 83.3191 44.4959 81.1321 44.4959H76.7387V48.7969L81.1708 48.7187ZM81.8288 59.6472C84.0546 59.6472 85.1964 58.7283 85.1964 57.3989V57.3012C85.1964 55.9913 84.0933 55.0725 81.8676 55.0725H76.7387V59.6472H81.8288Z" fill="white"></path>
  <path d="M102.015 36.6172H128.027V45.0628H112.041V48.1908H126.943V55.6394H112.041V58.9825H128.259V67.4477H102.015V36.6172Z" fill="white"></path>
  <path d="M146.007 36.4021H156.11L168.98 67.4281H157.91L156.284 63.303H145.6L144.033 67.4281H133.156L146.007 36.4021ZM153.748 55.9522L150.961 48.5036L148.155 55.9913L153.748 55.9522Z" fill="white"></path>
  <path d="M171.941 52.1205V52.0227C171.921 49.9312 172.309 47.8562 173.083 45.9163C173.857 43.9764 175.002 42.2096 176.453 40.7171C177.903 39.2246 179.631 38.0355 181.537 37.218C183.443 36.4004 185.489 35.9704 187.56 35.9525H188.16C190.976 35.8423 193.766 36.5357 196.21 37.9533C198.654 39.371 200.653 41.4555 201.979 43.9681L193.54 48.8751C193.1 47.7589 192.335 46.8032 191.347 46.1334C190.36 45.4636 189.195 45.1109 188.005 45.1215C184.56 45.1215 182.199 48.1713 182.199 51.8663C182.199 55.8741 184.56 58.6893 188.005 58.6893C189.249 58.6971 190.466 58.3289 191.501 57.6321C192.535 56.9353 193.34 55.9418 193.811 54.7793L202.23 59.5886C200.494 62.7129 197.789 65.1736 194.532 66.5913C191.275 68.009 187.646 68.3048 184.206 67.4333C180.766 66.5617 177.705 64.5712 175.495 61.7686C173.286 58.9659 172.051 55.5069 171.98 51.925L171.941 52.1205Z" fill="white"></path>
  <path d="M206.953 52.1206V52.0228C207.159 47.7039 209.003 43.6309 212.101 40.648C215.2 37.6651 219.317 36.0012 223.597 36.0012C227.878 36.0012 231.994 37.6651 235.093 40.648C238.192 43.6309 240.035 47.7039 240.242 52.0228V52.1206C240.035 56.4394 238.192 60.5125 235.093 63.4954C231.994 66.4782 227.878 68.1421 223.597 68.1421C219.317 68.1421 215.2 66.4782 212.101 63.4954C209.003 60.5125 207.159 56.4394 206.953 52.1206ZM229.965 52.1206V52.0228C230.054 50.2761 229.455 48.5648 228.297 47.2639C227.14 45.9629 225.519 45.1785 223.791 45.0825H223.558C222.715 45.0953 221.881 45.2758 221.107 45.6138C220.332 45.9518 219.631 46.4407 219.043 47.0525C218.455 47.6643 217.993 48.3871 217.682 49.1795C217.37 49.9719 217.217 50.8185 217.23 51.6709V52.0424C217.14 53.789 217.739 55.5004 218.897 56.8013C220.054 58.1022 221.675 58.8867 223.404 58.9826H223.636C224.481 58.9699 225.316 58.7887 226.092 58.4495C226.868 58.1103 227.57 57.6196 228.158 57.0058C228.746 56.3919 229.208 55.6668 229.518 54.8721C229.828 54.0774 229.98 53.2287 229.965 52.3747V52.1206Z" fill="white"></path>
  <path d="M247.403 36.6172H256.944L267.802 50.3022V36.6172H277.924V67.4477H268.847L257.505 53.2152V67.4477H247.403V36.6172Z" fill="white"></path>
  <path d="M309.664 7.8202H314.464C315.368 7.75915 316.275 7.87867 317.132 8.17193C317.99 8.46519 318.783 8.92644 319.464 9.52928C320.145 10.1321 320.702 10.8647 321.103 11.6852C321.504 12.5057 321.74 13.3979 321.799 14.3108V14.7996C321.802 15.7178 321.625 16.6274 321.279 17.4765C320.933 18.3255 320.424 19.0972 319.782 19.7474C319.141 20.3976 318.378 20.9134 317.538 21.2654C316.699 21.6173 315.799 21.7985 314.89 21.7985H309.664V7.8202ZM314.464 20.3323C315.174 20.3963 315.889 20.3164 316.567 20.0972C317.246 19.8779 317.874 19.5238 318.415 19.0557C318.956 18.5875 319.399 18.0147 319.718 17.3711C320.036 16.7275 320.224 16.026 320.27 15.3079C320.28 15.1516 320.28 14.9949 320.27 14.8387C320.283 14.1249 320.157 13.4156 319.898 12.7513C319.639 12.0869 319.254 11.4805 318.763 10.9667C318.272 10.4529 317.686 10.0418 317.038 9.75689C316.39 9.47194 315.693 9.31873 314.987 9.30601H311.29V20.3714L314.464 20.3323Z" fill="white"></path>
  <path d="M327.083 7.82007H337.089V9.24722H328.651V13.9783H336.199V15.425H328.651V20.3126H337.186V21.7397H327.083V7.82007Z" fill="white"></path>
  <path d="M341.327 19.7065L342.295 18.5531C342.917 19.1808 343.657 19.6769 344.471 20.0126C345.285 20.3483 346.158 20.5167 347.037 20.5081C348.972 20.5081 350.133 19.511 350.133 18.123C350.133 16.8327 349.437 16.168 346.534 15.4837C343.34 14.7799 341.889 13.7438 341.889 11.4368C341.922 10.8767 342.068 10.3292 342.318 9.82795C342.567 9.3267 342.916 8.88222 343.342 8.5217C343.767 8.16117 344.261 7.89219 344.794 7.73122C345.326 7.57024 345.885 7.52065 346.437 7.58548C348.208 7.52917 349.938 8.13477 351.295 9.28634L350.385 10.518C349.292 9.54884 347.891 9.00778 346.437 8.99309C344.637 8.99309 343.495 9.99014 343.495 11.2413C343.495 12.5708 344.192 13.3137 347.23 13.9588C350.269 14.604 351.74 15.777 351.74 17.8688C351.74 20.2735 349.804 21.7788 347.017 21.7788C344.926 21.8655 342.883 21.1217 341.327 19.7065Z" fill="white"></path>
  <path d="M357.004 7.82007H358.572V21.7788H357.004V7.82007Z" fill="white"></path>
  <path d="M363.991 14.7994C363.96 13.8785 364.109 12.9606 364.43 12.0982C364.751 11.2357 365.238 10.4459 365.862 9.7738C366.486 9.10174 367.235 8.56074 368.066 8.18184C368.898 7.80294 369.795 7.5936 370.707 7.56582H370.92C372.81 7.48555 374.656 8.15169 376.068 9.42308L375.062 10.6156C374.5 10.0837 373.84 9.66977 373.119 9.39792C372.398 9.12606 371.631 9.00171 370.862 9.03208C370.153 9.04983 369.454 9.20855 368.805 9.49919C368.157 9.78983 367.572 10.2067 367.083 10.7259C366.594 11.2452 366.211 11.8566 365.956 12.5254C365.701 13.1941 365.579 13.9071 365.597 14.6234V14.7994C365.534 15.513 365.612 16.2323 365.826 16.9153C366.041 17.5983 366.388 18.2312 366.848 18.7772C367.307 19.3232 367.869 19.7712 368.502 20.0952C369.135 20.4193 369.825 20.6127 370.533 20.6644H371.075C372.52 20.6649 373.924 20.1762 375.062 19.2763V15.64H370.862V14.291H376.571V19.8433C375.039 21.215 373.064 21.973 371.017 21.9742C369.218 22.043 367.465 21.3877 366.145 20.1524C364.824 18.9171 364.042 17.2028 363.972 15.3859C363.972 15.1904 363.972 14.9949 363.991 14.7994Z" fill="white"></path>
  <path d="M382.068 7.82007H383.519L392.248 19.0027V7.82007H393.757V21.7788H392.519L383.597 10.2834V21.7397H382.068V7.82007Z" fill="white"></path>
  <path d="M308.987 37.8294C308.961 36.9051 309.116 35.9847 309.442 35.1208C309.769 34.2569 310.261 33.4665 310.89 32.7947C311.519 32.123 312.273 31.583 313.109 31.2057C313.945 30.8284 314.846 30.6212 315.761 30.5959H315.974C316.978 30.565 317.978 30.7475 318.908 31.1314C319.838 31.5153 320.678 32.0921 321.373 32.8246L320.309 33.978C319.753 33.3699 319.08 32.8829 318.331 32.5467C317.583 32.2105 316.774 32.0323 315.954 32.023C315.243 32.0307 314.539 32.1799 313.885 32.4621C313.23 32.7443 312.637 33.154 312.139 33.6677C311.642 34.1815 311.249 34.7893 310.983 35.4564C310.718 36.1235 310.586 36.8368 310.593 37.5557C310.583 37.6204 310.583 37.6865 310.593 37.7512C310.546 38.4818 310.644 39.2145 310.88 39.9066C311.116 40.5987 311.487 41.2363 311.969 41.7823C312.452 42.3282 313.038 42.7716 313.692 43.0865C314.346 43.4013 315.056 43.5814 315.78 43.6162H315.935C316.774 43.6207 317.604 43.4492 318.374 43.1127C319.143 42.7762 319.835 42.2819 320.406 41.6612L321.432 42.6778C320.728 43.436 319.871 44.0326 318.92 44.4272C317.968 44.8218 316.944 45.0053 315.916 44.9652C315.011 44.9703 314.114 44.7954 313.276 44.4504C312.438 44.1054 311.676 43.597 311.032 42.9544C310.389 42.3117 309.877 41.5474 309.526 40.7049C309.175 39.8625 308.992 38.9584 308.987 38.0445V37.8294Z" fill="white"></path>
  <path d="M325.147 37.8296C325.208 35.9994 325.962 34.2627 327.255 32.9788C328.547 31.6949 330.279 30.962 332.091 30.9319C333.904 30.9017 335.659 31.5766 336.992 32.8169C338.326 34.0571 339.137 35.7678 339.257 37.595V37.8296C339.32 38.7944 339.188 39.7621 338.87 40.674C338.552 41.5859 338.053 42.423 337.405 43.1344C336.757 43.8458 335.972 44.4166 335.098 44.8123C334.225 45.208 333.281 45.4202 332.324 45.4361C331.367 45.452 330.417 45.2713 329.531 44.9049C328.645 44.5384 327.842 43.994 327.171 43.3045C326.5 42.6151 325.974 41.7951 325.626 40.8942C325.279 39.9934 325.116 39.0306 325.147 38.0642V37.8296ZM337.631 37.8296C337.659 37.1003 337.545 36.3725 337.295 35.6879C337.045 35.0032 336.663 34.375 336.173 33.8394C335.682 33.3037 335.091 32.8711 334.435 32.5661C333.779 32.2612 333.069 32.09 332.347 32.0623H332.192C331.478 32.0649 330.771 32.2095 330.113 32.4879C329.454 32.7664 328.856 33.1732 328.352 33.6851C327.849 34.1971 327.451 34.8041 327.18 35.4716C326.909 36.1391 326.771 36.854 326.773 37.5754V37.8296C326.731 38.5668 326.836 39.3051 327.08 40.0011C327.324 40.6971 327.704 41.3369 328.196 41.8831C328.688 42.4292 329.282 42.8708 329.946 43.1818C330.609 43.4929 331.326 43.6672 332.057 43.6946H332.231C332.944 43.6946 333.651 43.5524 334.309 43.276C334.968 42.9997 335.566 42.5948 336.07 42.0844C336.573 41.574 336.972 40.9682 337.243 40.3018C337.514 39.6354 337.653 38.9215 337.65 38.201C337.65 38.201 337.65 38.0446 337.65 37.9664L337.631 37.8296Z" fill="white"></path>
  <path d="M344.501 30.811H346.069V43.3231H353.811V44.7698H344.501V30.811Z" fill="white"></path>
  <path d="M358.746 30.811H360.294V43.3231H368.036V44.7698H358.707L358.746 30.811Z" fill="white"></path>
  <path d="M372.952 30.811H382.958V32.2382H374.52V37.0084H382.068V38.4551H374.52V43.3426H383.055V44.7698H372.952V30.811Z" fill="white"></path>
  <path d="M387.564 37.8294C387.539 36.9051 387.693 35.9847 388.02 35.1208C388.346 34.2569 388.838 33.4665 389.467 32.7947C390.096 32.123 390.85 31.583 391.686 31.2057C392.522 30.8284 393.423 30.6212 394.338 30.5959H394.551C395.555 30.565 396.555 30.7475 397.485 31.1314C398.415 31.5153 399.255 32.0921 399.951 32.8246L398.886 33.978C398.331 33.3699 397.658 32.8828 396.909 32.5467C396.16 32.2105 395.351 32.0323 394.532 32.023C393.82 32.0307 393.117 32.1799 392.462 32.4621C391.808 32.7443 391.215 33.154 390.717 33.6677C390.219 34.1815 389.826 34.7893 389.561 35.4564C389.296 36.1235 389.163 36.8368 389.171 37.5557V37.7903C389.126 38.5218 389.226 39.255 389.465 39.9472C389.703 40.6394 390.075 41.2768 390.56 41.8225C391.044 42.3682 391.631 42.8112 392.286 43.1258C392.942 43.4405 393.652 43.6204 394.377 43.6553H394.532C395.37 43.6598 396.201 43.4883 396.97 43.1518C397.74 42.8153 398.432 42.321 399.003 41.7003L400.028 42.7169C399.317 43.4675 398.455 44.0562 397.501 44.4439C396.546 44.8316 395.521 45.0093 394.493 44.9652C393.588 44.9703 392.691 44.7954 391.853 44.4504C391.015 44.1054 390.253 43.597 389.61 42.9544C388.966 42.3117 388.454 41.5474 388.104 40.7049C387.753 39.8625 387.569 38.9584 387.564 38.0445V37.8294Z" fill="white"></path>
  <path d="M408.37 32.2577H403.725V30.811H414.582V32.2577H409.957V44.7893H408.37V32.2577Z" fill="white"></path>
  <path d="M419.653 30.811H421.221V44.7698H419.653V30.811Z" fill="white"></path>
  <path d="M426.059 30.811H427.801L432.717 42.8343L437.652 30.811H439.336L433.394 44.9653H432.02L426.059 30.811Z" fill="white"></path>
  <path d="M444.039 30.811H454.045V32.2382H445.607V37.0084H453.155V38.4551H445.607V43.3426H454.142V44.7698H444.039V30.811Z" fill="white"></path>
  <path d="M309.664 53.8411H311.213V67.8194H309.664V53.8411Z" fill="white"></path>
  <path d="M317.406 53.8411H318.858L327.567 65.0433V53.8411H329.018V67.8194H327.78L318.838 56.363V67.8194H317.406V53.8411Z" fill="white"></path>
  <path d="M334.302 60.8595C334.276 59.9361 334.431 59.0167 334.758 58.1539C335.085 57.2912 335.577 56.502 336.206 55.8318C336.836 55.1616 337.59 54.6235 338.425 54.2483C339.261 53.8731 340.162 53.6683 341.076 53.6455H341.289C342.291 53.6158 343.289 53.7968 344.218 54.1771C345.148 54.5574 345.989 55.1286 346.689 55.8546L345.624 57.0081C345.067 56.4018 344.394 55.9159 343.645 55.5799C342.897 55.2439 342.089 55.0647 341.27 55.0531C340.556 55.0607 339.851 55.2106 339.196 55.494C338.54 55.7774 337.946 56.1888 337.448 56.7047C336.95 57.2205 336.557 57.8306 336.293 58.5C336.029 59.1694 335.898 59.8848 335.908 60.6053C335.899 60.6636 335.899 60.723 335.908 60.7813C335.859 61.5124 335.954 62.2462 336.19 62.9394C336.425 63.6327 336.795 64.2714 337.278 64.8179C337.762 65.3644 338.348 65.8078 339.004 66.1218C339.659 66.4358 340.371 66.6141 341.095 66.6463H341.25C342.089 66.6556 342.921 66.4863 343.692 66.1495C344.462 65.8126 345.153 65.3158 345.721 64.6913L346.747 65.7079C346.056 66.4995 345.203 67.1298 344.248 67.5552C343.292 67.9805 342.256 68.1907 341.211 68.1712C340.305 68.1763 339.406 68.0008 338.567 67.6545C337.728 67.3083 336.965 66.7982 336.321 66.1535C335.678 65.5088 335.166 64.7421 334.816 63.8974C334.467 63.0527 334.285 62.1465 334.283 61.2309L334.302 60.8595Z" fill="white"></path>
  <path d="M351.043 65.7078H352.862V67.8192H351.043V65.7078Z" fill="white"></path>
  <path d="M297.162 7.62451V67.2718" stroke="#F99C2E" stroke-width="0.94" stroke-miterlimit="10"></path>
  <path d="M72.3839 10.9479H66.0552V8.99292H80.861V10.9479H74.5322V27.9956H72.3839V10.9479Z" fill="white"></path>
  <path d="M87.5576 8.95386H89.6866V17.419H100.641V8.95386H102.77V28.0152H100.641V19.4327H89.6866V27.9956H87.5576V8.95386Z" fill="white"></path>
  <path d="M110.724 8.95386H124.272V10.9089H112.853V17.419H123.13V19.374H112.853V26.0406H124.466V27.9956H110.724V8.95386Z" fill="white"></path>
</svg>
